<svg version="1.0" xmlns="http://www.w3.org/2000/svg"
 width="1280.000000pt" height="960.000000pt" viewBox="0 0 1280.000000 960.000000"
 preserveAspectRatio="xMidYMid meet">
<g transform="translate(0.000000,960.000000) scale(0.100000,-0.100000)"
fill="#000000" stroke="none">
<path d="M6292 8259 c-103 -20 -201 -85 -254 -168 l-28 -45 0 -318 0 -317 -32
-5 c-18 -3 -478 -19 -1023 -36 -544 -17 -1051 -35 -1127 -39 l-136 -8 -79 -53
c-67 -46 -339 -235 -753 -523 -159 -111 -200 -145 -200 -167 0 -12 151 -144
442 -387 l442 -368 176 3 c96 2 481 9 855 17 374 8 849 17 1056 21 l376 7 6
-183 c10 -275 9 -430 -4 -430 -10 0 -1031 132 -1822 235 -440 58 -451 58 -462
12 -8 -33 -175 -1722 -175 -1768 0 -52 7 -54 200 -74 716 -75 2261 -245 2270
-250 7 -4 10 -330 10 -1015 l0 -1009 -29 -22 -29 -21 3 -207 c2 -113 5 -206 8
-206 3 0 14 -9 26 -19 21 -19 21 -24 21 -468 l0 -448 629 0 629 0 593 425 593
425 223 882 c122 486 222 894 223 908 0 18 -56 81 -247 273 l-248 249 45 -5
c25 -3 262 -29 528 -57 l482 -52 73 64 c39 36 236 210 437 388 201 177 369
329 373 336 5 8 5 22 2 32 -6 14 -1003 906 -1067 954 -17 12 -115 29 -378 63
-195 25 -750 97 -1233 160 -483 62 -880 115 -882 117 -5 4 -35 731 -31 735 1
2 347 14 767 28 1438 47 1572 53 1586 72 7 9 11 26 8 37 -2 12 -25 199 -50
416 -49 421 -98 829 -117 973 -6 49 -16 91 -23 93 -8 4 -1308 -44 -2152 -78
l-72 -3 -5 80 c-3 44 -8 185 -11 313 -6 258 -10 275 -77 338 -74 71 -230 114
-336 93z m1197 -4999 c321 -33 586 -62 588 -64 6 -6 -881 -1026 -908 -1045
-14 -10 -23 -11 -32 -3 -10 9 -24 -1 -60 -44 -26 -31 -47 -62 -47 -70 0 -8 -4
-14 -10 -14 -5 0 -17 -8 -27 -19 -13 -13 -27 -17 -50 -14 -29 5 -33 9 -37 47
-3 22 -12 282 -21 576 -8 294 -18 574 -21 623 -6 86 -6 87 17 87 13 0 287 -27
608 -60z m-551 -1358 c9 -7 8 -13 -8 -27 -20 -18 -20 -18 -20 8 0 28 6 32 28
19z"/>
</g>
</svg>
